# xmcd CD database file
#
# Track frame offsets:
#	150
#	24512
#	50357
#	70245
#	104435
#	140585
#	160760
#	176227
#	207597
#	239767
#	276172
#
# Disc length: 4026 seconds
#
# Revision: 0
# Processed by: cddbd v1.5.2PL0 Copyright (c) Steve Scherf et al.
# Submitted via: CDex 1.51
#
DISCID=a80fb80b
DTITLE=Jazz Mexicano - IV Festival Internacional De Musica de Morelia
DYEAR=1992
DGENRE=Jazz
TTITLE0=Satin Doll (D. Ellington)
TTITLE1=Summertime (Gershwin, Heyward)
TTITLE2=In A Sentimental Mood (D. Ellington)
TTITLE3=Con Alma -Round Midnight (D. Gillespie, T. Monk)
TTITLE4=All Of Me  Ain't Misbehavin' (Simons, Waller)
TTITLE5=Esta Tarde Vi Llover (A. Manzanero)
TTITLE6=My Romance (Rodgers, Hart)
TTITLE7=Chak's Song -Never Said (H. Hancock)
TTITLE8=Smoke Gets In Your Eyes (J. Kern)
TTITLE9=Body And Soul (J. Green)
TTITLE10=Someday My Prince Will Come (F. Churchill)
EXTD=YEAR: 1992
EXTT0=
EXTT1=
EXTT2=
EXTT3=
EXTT4=
EXTT5=
EXTT6=
EXTT7=
EXTT8=
EXTT9=
EXTT10=
PLAYORDER=
